<?xml version="1.0" encoding="UTF-8"?>
<!-- SPDX-License-Identifier: GPL-3.0-or-later -->
<svg xmlns="http://www.w3.org/2000/svg" width="16" height="16" fill="context-fill" class="symbolic">
  <path d="M8 1.5c-2.2 0-4 1.8-4 4v2.4c0 .7-.2 1.4-.7 2l-.6.7c-.5.7-.1 1.7.8 1.7h9c.9 0 1.3-1 .8-1.7l-.6-.7c-.5-.6-.7-1.3-.7-2V5.5c0-2.2-1.8-4-4-4zm0 1.5c1.4 0 2.5 1.1 2.5 2.5v2.4c0 1 .3 2 .9 2.9h-6.8c.6-.9.9-1.9.9-2.9V5.5C5.5 4.1 6.6 3 8 3z"/>
  <path d="M6.1 13.2c.3.8 1 1.3 1.9 1.3s1.6-.5 1.9-1.3z"/>
  <path d="M2.3 3.2c-.5.6-.8 1.3-.8 2.1 0 .4.3.8.8.8s.8-.3.8-.8c0-.4.1-.8.4-1.1.3-.3.3-.8 0-1.1s-.9-.2-1.2.1z"/>
  <path d="M13.7 3.2c.5.6.8 1.3.8 2.1 0 .4-.3.8-.8.8s-.8-.3-.8-.8c0-.4-.1-.8-.4-1.1-.3-.3-.3-.8 0-1.1s.9-.2 1.2.1z"/>
</svg>
